<svg xmlns="http://www.w3.org/2000/svg" width="800" height="800" viewBox="0 0 800 800"><title>Artboard 3</title><circle cx="400" cy="400" r="395.46" fill="#111721"/><path d="M405.46,724.37a325.88,325.88,0,0,1-86.7-11.81,324.32,324.32,0,0,1-73.93-594.69C400.35,29.57,598.7,84.27,687,239.78S720.6,593.64,565.08,681.93A322.45,322.45,0,0,1,405.46,724.37Zm-1-631.46a307,307,0,1,0,152.12,574C703.79,583.33,755.57,395.54,672,248.3,615.49,148.81,511.42,92.91,404.44,92.91Z" fill="#b5afa0"/><path d="M447.65,432.65q.11,30.32-14.7,60.69t-37.48,49.78l-40.85-20.78q6.24-11.79,12.6-24a136.85,136.85,0,0,0,10.5-27.09,125.79,125.79,0,0,0,4.08-34l-.18-57.24,66.13-.21Z" fill="#b5afa0"/><path d="M366.46,298.85q-.06-17.78,12.06-29.84t32-12.13q20.38-.06,32.45,11.92t12.12,29.76q.06,17.79-11.93,29.84t-32.37,12.13q-19.87.06-32.06-11.92T366.46,298.85Z" fill="#b5afa0"/><path d="M190.38,307.38l-3.16-8.15c3.92-.53,6.59-2,8.1-4.74,2-3.53.86-6.56-3.32-8.88l-18.1-10L166.49,289,159.43,285l12.26-22.12,24.67,13.68c9.4,5.21,11.4,12.51,6.43,21.47C200,303.17,195.5,306.6,190.38,307.38Z" fill="#b5afa0"/><path d="M255.23,219.79l5.51,5.91-24.63,23-29.68-31.81,24-22.43,5.51,5.9L219.26,216l6.44,6.91,14.77-13.78,5.34,5.72-14.76,13.78,6.86,7.36Z" fill="#b5afa0"/><path d="M321.38,192l-12.47-7.86-.46.19-8.06,3.44L305.14,199l-9.27,3.95-17.05-40,17.33-7.39c10.7-4.55,19.75-1.86,23.58,7.13a14.12,14.12,0,0,1-2.86,16.14l14.47,9.05Zm-22.53-28.79-7.55,3.22,5.95,14,7.54-3.22c5.67-2.41,7.41-6.26,5.55-10.61S304.51,160.84,298.85,163.25Z" fill="#b5afa0"/><path d="M404.63,169.29l.47,8.07-33.63,1.93L369,135.86,401.79,134l.47,8.07-22.84,1.31.55,9.43,20.16-1.16.45,7.82-20.17,1.16.58,10.05Z" fill="#b5afa0"/><path d="M484.14,194.2l8.21-24.78-19,16.34-4.3-1.43-5.45-23.91-8.09,24.23-9-3,13.79-41.27,7.9,2.64,6.88,30.8,23.77-20.56,7.85,2.62-13.67,41.3Z" fill="#b5afa0"/><path d="M557,186l8,6.1L538.7,226.74l-8-6.1Z" fill="#b5afa0"/><path d="M595.13,275.38l-11.62-16.53-9.84,2.21-5.94-8.44,46.75-9.16,5.72,8.13-24.4,41-6.08-8.65Zm4.43-7,9.66-15.23-17.6,3.94Z" fill="#b5afa0"/><path d="M662.8,356l-42.23,10.49-2.43-9.77,17.32-4.3-4.78-19.19-17.31,4.31-2.43-9.78,42.23-10.49,2.43,9.77L639,331.21l4.77,19.18,16.65-4.14Z" fill="#b5afa0"/><path d="M613.67,520.55c10.89,7.32,13.06,20.92,5.49,32.17-4.2,6.25-10,9.93-16.39,10.56l-1.35-8.7a14,14,0,0,0,10.34-6.23c4.55-6.76,3-14.75-3.78-19.34s-14.79-3-19.34,3.79a13.89,13.89,0,0,0-1.82,12l-8.56,2c-1.89-6.22-.66-13,3.58-19.25C589.37,516.35,602.78,513.23,613.67,520.55Z" fill="#b5afa0"/><path d="M526.54,595.29,543,583.54l-2.28-9.83,8.39-6,9.52,46.68-8.09,5.79-41.13-24.1,8.6-6.14Zm7,4.37,15.3,9.55-4.08-17.57Z" fill="#b5afa0"/><path d="M438.65,633.06c-1.91-7.27,2.75-13,13.81-15.92l21.76-5.72,11.08,42.07-20.56,5.42c-10.52,2.77-17.09-.2-18.81-6.75a10.46,10.46,0,0,1,3.15-10.73C444,641.16,440,638.35,438.65,633.06Zm10.06-1.56c.94,3.55,4.09,4.52,9.14,3.19l11.36-3-2.74-10.4-11.36,3C450.06,625.62,447.77,627.89,448.71,631.5Zm25,17.21-2.62-9.92-9.67,2.55c-4.75,1.25-6.89,3.61-6,6.92s3.88,4.24,8.63,3Z" fill="#b5afa0"/><path d="M364.83,630.45l20.08,2.15,4.83-8.86,10.26,1.1L376.07,666,366.18,665l-14.69-45.33,10.5,1.12Zm2.33,7.93,5.08,17.3,8.64-15.82Z" fill="#b5afa0"/><path d="M259.73,628.18l19.85-38.7,7.36,3.77,7.24,33.4,12.05-23.5,8.85,4.54-19.86,38.7-7.41-3.8-7.18-33.37-12.05,23.5Z" fill="#b5afa0"/><path d="M230.36,578.84c-9.77,8.46-23.6,7.12-32.59-3.27s-8.4-24.21,1.42-32.72,23.64-7.07,32.59,3.26S240.13,570.37,230.36,578.84Zm-24.5-28.28c-6.24,5.41-6.69,13.53-1.61,19.4s13.19,6.58,19.44,1.17,6.69-13.53,1.61-19.4S212.11,545.14,205.86,550.56Z" fill="#b5afa0"/><path d="M193.15,496.84l-8.3-.57a25.56,25.56,0,0,0-.74-15c-2.08-5.59-4.79-7.17-7.3-6.24-7.63,2.84,6.43,24.6-8.72,30.23-6.93,2.58-14.78-.87-19.09-12.46-1.9-5.13-2.63-10.83-1.64-15.5l8.24.25a24.56,24.56,0,0,0,1,12.49c2.08,5.59,5,7,7.54,6,7.52-2.79-6.48-24.58,8.49-30.14,6.82-2.54,14.74.95,19.07,12.6C194.11,484.94,194.61,492.18,193.15,496.84Z" fill="#b5afa0"/></svg>