<svg xmlns="http://www.w3.org/2000/svg" width="1535.07" height="673" viewBox="0 0 1535.07 673"><title>Artboard 3 copy</title><path d="M628.33,182.24C542.49,20.07,341.44-41.8,179.27,44S-44.76,330.93,41.08,493.1,328,717.13,490.13,631.29,714.17,344.4,628.33,182.24ZM385,376q.1,35.6-17.27,71.24t-44,58.44l-47.94-24.39q7.31-13.83,14.79-28.12a161.51,161.51,0,0,0,12.32-31.8q4.86-17.5,4.79-39.91l-.22-67.2,77.64-.24Zm-5.3-122.37q-14.07,14.16-38,14.23-23.32.07-37.63-14t-14.38-34.94q-.06-20.86,14.16-35t37.54-14.24q23.94-.07,38.1,14t14.22,34.93Q393.73,239.47,379.66,253.62Z" fill="#231f20"/><path d="M818.25,288.63,839.62,263c9,12.11,19,18.28,30.86,18.28,15.43,0,23.51-9.26,23.51-27.54V174.67H835.58V143.81h96.63V251.6c0,41.07-20.65,61.25-59.83,61.25C850.06,312.85,830.36,304.3,818.25,288.63Z" fill="#231f20"/><path d="M1132.12,279.14V310H1003.44V143.81H1129v30.86h-87.37v36.09h77.16v29.91h-77.16v38.47Z" fill="#231f20"/><path d="M1301.88,310l-32.06-46.3h-35.37V310H1196V143.81h71.94c44.4,0,72.18,23,72.18,60.3,0,24.93-12.58,43.21-34.19,52.47L1343.19,310Zm-36.09-134.86h-31.34v57.94h31.34c23.5,0,35.37-10.92,35.37-29C1301.16,185.83,1289.29,175.14,1265.79,175.14Z" fill="#231f20"/><path d="M1532.41,279.14V310H1403.73V143.81h125.59v30.86H1442v36.09h77.17v29.91H1442v38.47Z" fill="#231f20"/><path d="M971.06,531.53l-.23-99.72L921.92,514H904.59l-48.68-80v97.58H819.83V365.33h31.81l62.21,103.28L975.1,365.33h31.58l.47,166.2Z" fill="#231f20"/><path d="M1070.3,365.33h38.47v166.2H1070.3Z" fill="#231f20"/><path d="M1281.37,495.92h-77.16l-14.72,35.61h-39.41l74.07-166.2h38l74.31,166.2h-40.36Zm-12.11-29.21-26.35-63.63-26.36,63.63Z" fill="#231f20"/><path d="M1530,365.33v166.2h-38.46V463.39H1416v68.14h-38.46V365.33H1416v65.53h75.5V365.33Z" fill="#231f20"/></svg>